# xmcd
#
# Track frame offsets: 
#        150
#        16671
#        28978
#        40858
#        58656
#        70433
#        82862
#        97124
#        107619
#        122246
#        133948
#
# Disc length: 1964 seconds
#
# Revision: 0
# Processed by: cddbd v1.5.2PL0 Copyright (c) Steve Scherf et al.
# Submitted via: ExactAudioCopyFreeDBPlugin 1.0
#
DISCID=9507aa0b
DTITLE=Brent Allen - There's a Lot of Folks Like Me
DYEAR=2006
DGENRE=Country
TTITLE0=I Just Can't Ask You to Stay
TTITLE1=Day Job
TTITLE2=If I Could Just Get Back (Into the Swing of Things)
TTITLE3=I'll See You in My Creams
TTITLE4=Hair of the Dog
TTITLE5=Best Friend I Never Had
TTITLE6=There's a Lot of Folks Like Me
TTITLE7=On the Road to My Heart
TTITLE8=Tryin' to Keep a Woman Off My Mind
TTITLE9=The Whiskey Won't Help
TTITLE10=Hopelessly In Love
EXTD=
EXTT0=
EXTT1=
EXTT2=
EXTT3=
EXTT4=
EXTT5=
EXTT6=
EXTT7=
EXTT8=
EXTT9=
EXTT10=
PLAYORDER=
